# xmcd
#
# Track frame offsets:
#	150
#	14616
#	38913
#	57445
#	72967
#	91616
#	107874
#	124254
#	139677
#	155532
#	172354
#	191538
#	208627
#	231568
#	253154
#	267750
#	288262
#	301791
#	315269
#	327576
#
# Disc length: 4575 seconds
#
# Revision: 0
# Processed by: cddbd v1.4PL0 Copyright (c) Steve Scherf et al.
# Submitted via: EasyCDDAExtractor 4.5.2.1
#
DISCID=2911dd14
DTITLE=A.A.V.V - Spot Collection Summer 2002
DYEAR=2002
DGENRE=Country
TTITLE0="Garbage" Cherry Lips (go baby go)
TTITLE1="Fatboy Slim" Praise You
TTITLE2="Morcheeba" World looking in
TTITLE3="Stereophonics" Have a Nice Day
TTITLE4="All Saints" Pure Shores
TTITLE5="Lene Marlin" Sitting Down Here
TTITLE6="The Cardigans" My Favourite Game
TTITLE7="Isaac Delgado"La Vida Es Un Carnival
TTITLE8="Aco Bocina" Rumba del Sol
TTITLE9="Kinobe" Slip Into Something
TTITLE10="Burt Bacharach" What The World Needs Now Is Love
TTITLE11="Sigma Tibet" Free
TTITLE12="Cornershop"Brimful of Asha
TTITLE13="Jah Wobble" Om Namah Shiva
TTITLE14="S.O.B." 8
TTITLE15="New Radicals" You Get What You Give
TTITLE16="Timo Maas" Hash Driven
TTITLE17="Five" Keep on Movin'
TTITLE18="Harry Nilsson" Everybody's Talking
TTITLE19="The Rubettes" Sugar Baby Love
EXTD=
EXTT0=
EXTT1=
EXTT2=
EXTT3=
EXTT4=
EXTT5=
EXTT6=
EXTT7=
EXTT8=
EXTT9=
EXTT10=
EXTT11=
EXTT12=
EXTT13=
EXTT14=
EXTT15=
EXTT16=
EXTT17=
EXTT18=
EXTT19=
PLAYORDER=
